<?xml version="1.0" standalone="no"?>
<!DOCTYPE svg PUBLIC "-//W3C//DTD SVG 20010904//EN"
 "http://www.w3.org/TR/2001/REC-SVG-20010904/DTD/svg10.dtd">
<svg version="1.0" xmlns="http://www.w3.org/2000/svg"
 width="650.000000pt" height="820.000000pt" viewBox="0 0 650.000000 820.000000"
 preserveAspectRatio="xMidYMid meet">

<g transform="translate(0.000000,820.000000) scale(0.100000,-0.100000)"
fill="#000000" stroke="none">
<path d="M3150 7244 c-234 -47 -420 -178 -520 -366 -120 -225 -117 -425 11
-750 91 -229 263 -552 463 -870 75 -120 94 -138 146 -138 52 0 71 18 146 138
268 425 456 804 531 1070 38 133 39 301 4 407 -83 247 -247 411 -486 485 -69
21 -240 35 -295 24z m151 -619 c56 -30 66 -109 20 -156 -83 -83 -214 17 -157
120 27 48 84 63 137 36z"/>
<path d="M1334 4796 c-96 -30 -105 -42 -634 -762 -278 -378 -519 -709 -536
-734 -66 -98 -64 -76 -64 -711 0 -550 1 -578 21 -649 45 -164 166 -294 328
-352 43 -16 90 -22 207 -25 l151 -5 16 -89 c16 -93 54 -187 106 -263 17 -25
31 -47 31 -50 0 -3 -180 -6 -401 -6 l-401 0 -29 -29 c-42 -43 -41 -96 4 -139
l33 -32 3085 0 3085 0 32 33 c43 45 44 96 3 138 l-29 29 -301 0 c-166 0 -301
2 -301 4 0 2 20 33 44 69 55 81 84 159 99 258 l11 77 55 7 c209 26 380 180
435 391 14 55 16 194 16 1230 0 1158 0 1168 -21 1246 -44 161 -162 289 -326
351 l-58 22 -2310 2 c-1862 1 -2318 -1 -2351 -11z m4608 -197 c71 -15 116 -39
159 -86 39 -41 69 -83 69 -95 0 -5 -1112 -8 -2470 -8 l-2470 0 62 86 c38 53
75 92 93 100 40 18 4473 21 4557 3z m-4222 -1250 c0 -644 -3 -848 -12 -857 -9
-9 -179 -12 -705 -12 l-693 0 0 334 c0 332 0 333 23 367 37 54 718 982 735
1002 15 17 38 18 334 15 l318 -3 0 -846z m1120 400 l0 -454 -450 0 -450 0 0
450 0 450 450 4 450 4 0 -454z m1120 139 c0 -172 -3 -376 -6 -453 l-7 -140
-446 2 -446 3 -3 444 -2 445 102 4 c57 1 262 4 456 5 l352 2 0 -312z m1110
-139 l0 -454 -450 0 -450 0 0 450 0 450 450 4 450 4 0 -454z m1120 0 l0 -454
-450 0 -450 0 0 450 0 450 450 4 450 4 0 -454z m0 -1206 c-1 -580 0 -574 -55
-653 -47 -68 -122 -108 -232 -126 l-41 -6 -32 63 c-79 159 -198 264 -365 320
-93 32 -270 34 -355 5 -169 -58 -298 -166 -373 -316 l-33 -65 -1353 -2 -1352
-2 -16 37 c-24 58 -99 166 -144 206 -61 56 -143 105 -222 134 -63 22 -88 25
-197 26 -110 0 -133 -3 -192 -26 -37 -14 -93 -41 -124 -59 -78 -48 -183 -161
-225 -244 l-36 -70 -139 1 c-76 0 -157 6 -180 12 -57 16 -127 65 -159 112 -46
66 -54 104 -55 247 l0 133 733 2 732 3 45 30 c24 17 58 50 75 73 l30 44 3 316
c2 208 7 320 14 329 8 11 401 13 2129 13 l2119 0 0 -537z m-4699 -912 c60 -61
27 -156 -58 -168 -39 -5 -46 -2 -79 31 -33 33 -36 40 -31 79 12 85 107 118
168 58z m3860 0 c56 -56 29 -153 -47 -167 -75 -14 -134 45 -120 119 14 77 110
104 167 48z m-681 -93 c1 -86 66 -265 125 -341 14 -19 25 -37 25 -40 0 -4
-661 -7 -1470 -7 -808 0 -1470 2 -1470 5 0 3 15 26 34 52 18 27 43 67 55 91
27 52 61 182 61 229 l0 33 1320 0 1320 0 0 -22z"/>
<path d="M1535 3615 c0 -236 1 -332 2 -212 2 120 2 314 0 430 -1 117 -2 19 -2
-218z"/>
<path d="M1521 3134 c0 -11 3 -14 6 -6 3 7 2 16 -1 19 -3 4 -6 -2 -5 -13z"/>
<path d="M1232 2962 c-35 -33 -46 -63 -38 -107 8 -38 56 -85 89 -85 20 -1 20
-2 -5 -16 -31 -16 -36 -39 -12 -48 9 -3 68 -6 132 -6 98 0 122 3 149 20 41 24
49 41 57 117 5 47 3 70 -8 92 -29 55 -47 61 -197 61 -136 0 -137 0 -167 -28z"/>
<path d="M948 2573 c6 -2 18 -2 25 0 6 3 1 5 -13 5 -14 0 -19 -2 -12 -5z"/>
<path d="M472 2563 c82 -2 214 -2 295 0 82 1 15 3 -147 3 -162 0 -229 -2 -148
-3z"/>
<path d="M2014 3925 c0 -82 2 -115 3 -72 2 43 2 110 0 150 -1 40 -3 5 -3 -78z"/>
<path d="M2493 3373 c48 -2 126 -2 175 0 48 1 8 3 -88 3 -96 0 -136 -2 -87 -3z"/>
<path d="M3134 3930 c0 -91 2 -128 3 -82 2 45 2 119 0 165 -1 45 -3 8 -3 -83z"/>
<path d="M3141 3734 c0 -11 3 -14 6 -6 3 7 2 16 -1 19 -3 4 -6 -2 -5 -13z"/>
<path d="M3613 3373 c48 -2 126 -2 175 0 48 1 8 3 -88 3 -96 0 -136 -2 -87 -3z"/>
<path d="M4254 3925 c0 -82 2 -115 3 -72 2 43 2 110 0 150 -1 40 -3 5 -3 -78z"/>
<path d="M4261 3724 c0 -11 3 -14 6 -6 3 7 2 16 -1 19 -3 4 -6 -2 -5 -13z"/>
<path d="M4723 3373 c48 -2 126 -2 175 0 48 1 8 3 -88 3 -96 0 -136 -2 -87 -3z"/>
<path d="M5382 4070 c0 -14 2 -19 5 -12 2 6 2 18 0 25 -3 6 -5 1 -5 -13z"/>
<path d="M5382 3790 c0 -14 2 -19 5 -12 2 6 2 18 0 25 -3 6 -5 1 -5 -13z"/>
<path d="M5430 3625 c0 -5 5 -17 10 -25 5 -8 10 -10 10 -5 0 6 -5 17 -10 25
-5 8 -10 11 -10 5z"/>
<path d="M5868 3373 c56 -2 148 -2 205 0 56 1 10 3 -103 3 -113 0 -159 -2
-102 -3z"/>
<path d="M5434 2869 c-25 -13 -54 -60 -54 -89 0 -31 29 -76 57 -89 15 -7 111
-11 259 -11 l236 0 29 29 c23 23 29 38 29 71 0 33 -6 48 -29 71 l-29 29 -239
-1 c-138 0 -247 -5 -259 -10z"/>
<path d="M5432 2560 c-65 -40 -66 -125 -3 -167 33 -22 41 -23 258 -23 244 0
268 5 292 57 24 52 7 109 -39 136 -24 15 -61 17 -252 17 -205 0 -226 -2 -256
-20z"/>
</g>
</svg>
